# xmcd CD database file generated by OrangeCD 6.2
#
# Track frame offsets:
#	150
#	27509
#	54617
#	81139
#	116871
#	154560
#	183922
#	218106
#
# Disc length: 3309 seconds
#
# Revision: 0
# Processed by: cddbd v1.5.2PL0 Copyright (c) Steve Scherf et al.
# Submitted via: OrangeCD 6.2
#
DISCID=670ceb08
DTITLE=Ximo Tebar - Goes Blue
DYEAR=1900
DGENRE=
TTITLE0=Goes Blue
TTITLE1=I Love You
TTITLE2=Laura
TTITLE3=Days Of Wine And Roses
TTITLE4=Invitation
TTITLE5=Midnight Creeper
TTITLE6=Come To Me
TTITLE7=Blues Walk
EXTD=
EXTT0=
EXTT1=
EXTT2=
EXTT3=
EXTT4=
EXTT5=
EXTT6=
EXTT7=
PLAYORDER=
